<svg width="288" height="48" viewBox="0 0 288 48" fill="none" xmlns="http://www.w3.org/2000/svg">
<path d="M0.632 4.016C1.432 4.048 2.504 4.08 3.848 4.112C5.224 4.144 6.584 4.16 7.928 4.16C9.464 4.16 10.952 4.144 12.392 4.112C13.832 4.08 14.856 4.064 15.464 4.064C19.912 4.064 23.24 4.944 25.448 6.704C27.656 8.464 28.76 10.736 28.76 13.52C28.76 14.672 28.536 15.888 28.088 17.168C27.64 18.416 26.872 19.584 25.784 20.672C24.728 21.728 23.272 22.592 21.416 23.264C19.56 23.936 17.224 24.272 14.408 24.272H9.512V23.312H13.928C15.816 23.312 17.24 22.88 18.2 22.016C19.192 21.152 19.864 20.016 20.216 18.608C20.6 17.2 20.792 15.68 20.792 14.048C20.792 11.008 20.344 8.736 19.448 7.232C18.552 5.728 17.016 4.976 14.84 4.976C13.592 4.976 12.776 5.248 12.392 5.792C12.04 6.336 11.864 7.44 11.864 9.104V32.624C11.864 33.872 11.992 34.8 12.248 35.408C12.504 36.016 13 36.416 13.736 36.608C14.472 36.8 15.56 36.912 17 36.944V38C16.008 37.968 14.728 37.936 13.16 37.904C11.592 37.872 9.944 37.856 8.216 37.856C6.84 37.856 5.496 37.872 4.184 37.904C2.872 37.936 1.688 37.968 0.632 38V37.04C1.656 36.976 2.424 36.848 2.936 36.656C3.448 36.464 3.784 36.08 3.944 35.504C4.136 34.928 4.232 34.064 4.232 32.912V9.104C4.232 7.92 4.136 7.056 3.944 6.512C3.784 5.936 3.432 5.552 2.888 5.36C2.376 5.136 1.624 5.008 0.632 4.976V4.016ZM37.142 0.799998C38.486 0.799998 39.542 1.136 40.31 1.808C41.11 2.448 41.51 3.344 41.51 4.496C41.51 5.648 41.11 6.56 40.31 7.232C39.542 7.872 38.486 8.192 37.142 8.192C35.798 8.192 34.726 7.872 33.926 7.232C33.158 6.56 32.774 5.648 32.774 4.496C32.774 3.344 33.158 2.448 33.926 1.808C34.726 1.136 35.798 0.799998 37.142 0.799998ZM40.886 12.656V33.536C40.886 34.88 41.11 35.792 41.558 36.272C42.038 36.752 42.838 36.992 43.958 36.992V38C43.382 37.968 42.486 37.936 41.27 37.904C40.054 37.84 38.822 37.808 37.574 37.808C36.326 37.808 35.062 37.84 33.782 37.904C32.502 37.936 31.542 37.968 30.902 38V36.992C32.022 36.992 32.806 36.752 33.254 36.272C33.734 35.792 33.974 34.88 33.974 33.536V18.416C33.974 16.976 33.75 15.92 33.302 15.248C32.886 14.544 32.086 14.192 30.902 14.192V13.184C31.926 13.28 32.918 13.328 33.878 13.328C35.222 13.328 36.47 13.28 37.622 13.184C38.806 13.056 39.894 12.88 40.886 12.656ZM58.4266 12.512C61.2426 12.512 63.4506 13.344 65.0506 15.008C66.6506 16.672 67.4506 19.392 67.4506 23.168H51.6586L51.5626 22.256H61.4026C61.4346 20.688 61.3386 19.248 61.1146 17.936C60.8906 16.592 60.5386 15.52 60.0586 14.72C59.5786 13.92 58.9386 13.52 58.1386 13.52C57.0186 13.52 56.0586 14.224 55.2586 15.632C54.4906 17.04 54.0266 19.376 53.8666 22.64L54.0106 22.928C53.9786 23.312 53.9466 23.712 53.9146 24.128C53.9146 24.544 53.9146 24.976 53.9146 25.424C53.9146 27.632 54.2186 29.424 54.8266 30.8C55.4666 32.176 56.2666 33.184 57.2266 33.824C58.1866 34.432 59.1626 34.736 60.1546 34.736C60.8266 34.736 61.5146 34.64 62.2186 34.448C62.9546 34.224 63.6906 33.84 64.4266 33.296C65.1626 32.72 65.8506 31.92 66.4906 30.896L67.3546 31.184C66.9706 32.4 66.3626 33.584 65.5306 34.736C64.6986 35.888 63.6426 36.832 62.3626 37.568C61.0826 38.304 59.5466 38.672 57.7546 38.672C55.5786 38.672 53.6586 38.208 51.9946 37.28C50.3306 36.352 49.0186 34.944 48.0586 33.056C47.1306 31.168 46.6666 28.768 46.6666 25.856C46.6666 22.88 47.1626 20.4 48.1546 18.416C49.1786 16.432 50.5706 14.96 52.3306 14C54.1226 13.008 56.1546 12.512 58.4266 12.512ZM79.9741 5.312V13.184H85.6381V14.144H79.9741V33.536C79.9741 34.496 80.1501 35.184 80.5021 35.6C80.8541 35.984 81.3821 36.176 82.0861 36.176C82.6621 36.176 83.2381 35.968 83.8141 35.552C84.3901 35.104 84.9021 34.352 85.3501 33.296L86.1661 33.728C85.6541 35.168 84.8701 36.352 83.8141 37.28C82.7901 38.208 81.3821 38.672 79.5901 38.672C78.5341 38.672 77.6061 38.528 76.8061 38.24C76.0061 37.984 75.3341 37.584 74.7901 37.04C74.0861 36.336 73.6221 35.472 73.3981 34.448C73.1741 33.392 73.0621 32.032 73.0621 30.368V14.144H69.0301V13.184H73.0621V6.848C74.4061 6.848 75.6381 6.736 76.7581 6.512C77.9101 6.256 78.9821 5.856 79.9741 5.312ZM103.617 12.512C104.641 12.512 105.473 12.736 106.113 13.184C106.753 13.6 107.217 14.144 107.505 14.816C107.825 15.488 107.985 16.192 107.985 16.928C107.985 18.112 107.633 19.088 106.929 19.856C106.257 20.592 105.361 20.96 104.241 20.96C103.121 20.96 102.241 20.688 101.601 20.144C100.993 19.568 100.689 18.816 100.689 17.888C100.689 16.992 100.881 16.256 101.265 15.68C101.681 15.072 102.193 14.56 102.801 14.144C102.353 14.016 101.905 14.032 101.457 14.192C100.849 14.288 100.273 14.544 99.7291 14.96C99.1851 15.344 98.7211 15.84 98.3371 16.448C97.9531 17.024 97.6491 17.664 97.4251 18.368C97.2011 19.04 97.0891 19.696 97.0891 20.336V33.056C97.0891 34.592 97.4571 35.632 98.1931 36.176C98.9611 36.72 100.097 36.992 101.601 36.992V38C100.865 37.968 99.7931 37.936 98.3851 37.904C96.9771 37.84 95.5051 37.808 93.9691 37.808C92.6891 37.808 91.3931 37.84 90.0811 37.904C88.7691 37.936 87.7771 37.968 87.1051 38V36.992C88.2251 36.992 89.0091 36.752 89.4571 36.272C89.9371 35.792 90.1771 34.88 90.1771 33.536V18.416C90.1771 16.976 89.9531 15.92 89.5051 15.248C89.0891 14.544 88.2891 14.192 87.1051 14.192V13.184C88.1291 13.28 89.1211 13.328 90.0811 13.328C91.4251 13.328 92.6731 13.28 93.8251 13.184C95.0091 13.056 96.0971 12.88 97.0891 12.656V17.12C97.4731 16.256 97.9851 15.472 98.6251 14.768C99.2651 14.064 100.001 13.52 100.833 13.136C101.665 12.72 102.593 12.512 103.617 12.512ZM116.135 38.336C114.695 38.336 113.495 38.064 112.535 37.52C111.575 36.976 110.871 36.256 110.423 35.36C109.975 34.432 109.751 33.424 109.751 32.336C109.751 30.96 110.055 29.84 110.663 28.976C111.303 28.112 112.119 27.408 113.111 26.864C114.103 26.32 115.143 25.872 116.231 25.52C117.351 25.168 118.407 24.832 119.399 24.512C120.423 24.16 121.239 23.76 121.847 23.312C122.487 22.832 122.807 22.224 122.807 21.488V17.744C122.807 16.912 122.663 16.176 122.375 15.536C122.119 14.864 121.703 14.352 121.127 14C120.583 13.648 119.863 13.472 118.967 13.472C118.327 13.472 117.687 13.568 117.047 13.76C116.407 13.92 115.879 14.208 115.463 14.624C116.359 14.944 117.047 15.44 117.527 16.112C118.039 16.752 118.295 17.488 118.295 18.32C118.295 19.408 117.911 20.272 117.143 20.912C116.407 21.552 115.527 21.872 114.503 21.872C113.351 21.872 112.471 21.52 111.863 20.816C111.287 20.08 110.999 19.2 110.999 18.176C110.999 17.248 111.223 16.48 111.671 15.872C112.151 15.264 112.807 14.688 113.639 14.144C114.535 13.632 115.607 13.232 116.855 12.944C118.135 12.656 119.511 12.512 120.983 12.512C122.455 12.512 123.783 12.672 124.967 12.992C126.151 13.28 127.143 13.824 127.943 14.624C128.679 15.36 129.159 16.272 129.383 17.36C129.607 18.416 129.719 19.76 129.719 21.392V34.448C129.719 35.248 129.799 35.808 129.959 36.128C130.119 36.416 130.391 36.56 130.775 36.56C131.063 36.56 131.335 36.48 131.591 36.32C131.879 36.16 132.183 35.968 132.503 35.744L132.983 36.56C132.311 37.136 131.527 37.584 130.631 37.904C129.767 38.192 128.791 38.336 127.703 38.336C126.519 38.336 125.575 38.176 124.871 37.856C124.167 37.504 123.655 37.04 123.335 36.464C123.047 35.888 122.903 35.216 122.903 34.448C122.135 35.664 121.207 36.624 120.119 37.328C119.031 38 117.703 38.336 116.135 38.336ZM119.543 35.264C120.183 35.264 120.759 35.12 121.271 34.832C121.815 34.512 122.327 34 122.807 33.296V23.456C122.519 23.936 122.119 24.368 121.607 24.752C121.095 25.136 120.551 25.536 119.975 25.952C119.399 26.336 118.839 26.768 118.295 27.248C117.783 27.728 117.367 28.32 117.047 29.024C116.727 29.728 116.567 30.576 116.567 31.568C116.567 32.816 116.839 33.744 117.383 34.352C117.927 34.96 118.647 35.264 119.543 35.264ZM157.804 3.392C159.692 3.392 161.148 3.6 162.172 4.016C163.196 4.4 164.076 4.816 164.812 5.264C165.196 5.488 165.5 5.664 165.724 5.792C165.98 5.888 166.22 5.936 166.444 5.936C166.764 5.936 166.988 5.76 167.116 5.408C167.276 5.056 167.404 4.528 167.5 3.824H168.604C168.572 4.432 168.524 5.168 168.46 6.032C168.428 6.864 168.396 7.968 168.364 9.344C168.364 10.72 168.364 12.528 168.364 14.768H167.26C167.132 13.104 166.748 11.488 166.108 9.92C165.468 8.352 164.556 7.072 163.372 6.08C162.22 5.056 160.796 4.544 159.1 4.544C157.564 4.544 156.3 4.976 155.308 5.84C154.316 6.704 153.82 7.904 153.82 9.44C153.82 10.72 154.14 11.824 154.78 12.752C155.42 13.648 156.348 14.528 157.564 15.392C158.812 16.256 160.316 17.296 162.076 18.512C163.612 19.504 164.988 20.496 166.204 21.488C167.42 22.48 168.396 23.6 169.132 24.848C169.868 26.096 170.236 27.584 170.236 29.312C170.236 31.424 169.676 33.168 168.556 34.544C167.468 35.92 166.028 36.96 164.236 37.664C162.444 38.336 160.476 38.672 158.332 38.672C156.348 38.672 154.764 38.48 153.58 38.096C152.396 37.712 151.404 37.312 150.604 36.896C149.9 36.448 149.356 36.224 148.972 36.224C148.652 36.224 148.412 36.4 148.252 36.752C148.124 37.104 148.012 37.632 147.916 38.336H146.812C146.876 37.568 146.908 36.672 146.908 35.648C146.94 34.624 146.956 33.296 146.956 31.664C146.988 30 147.004 27.904 147.004 25.376H148.108C148.236 27.488 148.588 29.472 149.164 31.328C149.772 33.152 150.684 34.624 151.9 35.744C153.148 36.864 154.796 37.424 156.844 37.424C157.964 37.424 158.956 37.232 159.82 36.848C160.716 36.432 161.436 35.824 161.98 35.024C162.524 34.224 162.796 33.232 162.796 32.048C162.796 30.704 162.476 29.536 161.836 28.544C161.228 27.552 160.38 26.624 159.292 25.76C158.236 24.896 157.004 24.016 155.596 23.12C154.092 22.128 152.684 21.136 151.372 20.144C150.06 19.152 149.004 18.016 148.204 16.736C147.436 15.456 147.052 13.936 147.052 12.176C147.052 10.16 147.548 8.512 148.54 7.232C149.564 5.92 150.892 4.96 152.524 4.352C154.188 3.712 155.948 3.392 157.804 3.392ZM179.979 38.336C178.539 38.336 177.339 38.064 176.379 37.52C175.419 36.976 174.715 36.256 174.267 35.36C173.819 34.432 173.595 33.424 173.595 32.336C173.595 30.96 173.899 29.84 174.507 28.976C175.147 28.112 175.963 27.408 176.955 26.864C177.947 26.32 178.987 25.872 180.075 25.52C181.195 25.168 182.251 24.832 183.243 24.512C184.267 24.16 185.083 23.76 185.691 23.312C186.331 22.832 186.651 22.224 186.651 21.488V17.744C186.651 16.912 186.507 16.176 186.219 15.536C185.963 14.864 185.547 14.352 184.971 14C184.427 13.648 183.707 13.472 182.811 13.472C182.171 13.472 181.531 13.568 180.891 13.76C180.251 13.92 179.723 14.208 179.307 14.624C180.203 14.944 180.891 15.44 181.371 16.112C181.883 16.752 182.139 17.488 182.139 18.32C182.139 19.408 181.755 20.272 180.987 20.912C180.251 21.552 179.371 21.872 178.347 21.872C177.195 21.872 176.315 21.52 175.707 20.816C175.131 20.08 174.843 19.2 174.843 18.176C174.843 17.248 175.067 16.48 175.515 15.872C175.995 15.264 176.651 14.688 177.483 14.144C178.379 13.632 179.451 13.232 180.699 12.944C181.979 12.656 183.355 12.512 184.827 12.512C186.299 12.512 187.627 12.672 188.811 12.992C189.995 13.28 190.987 13.824 191.787 14.624C192.523 15.36 193.003 16.272 193.227 17.36C193.451 18.416 193.563 19.76 193.563 21.392V34.448C193.563 35.248 193.643 35.808 193.803 36.128C193.963 36.416 194.235 36.56 194.619 36.56C194.907 36.56 195.179 36.48 195.435 36.32C195.723 36.16 196.027 35.968 196.347 35.744L196.827 36.56C196.155 37.136 195.371 37.584 194.475 37.904C193.611 38.192 192.635 38.336 191.547 38.336C190.363 38.336 189.419 38.176 188.715 37.856C188.011 37.504 187.499 37.04 187.179 36.464C186.891 35.888 186.747 35.216 186.747 34.448C185.979 35.664 185.051 36.624 183.963 37.328C182.875 38 181.547 38.336 179.979 38.336ZM183.387 35.264C184.027 35.264 184.603 35.12 185.115 34.832C185.659 34.512 186.171 34 186.651 33.296V23.456C186.363 23.936 185.963 24.368 185.451 24.752C184.939 25.136 184.395 25.536 183.819 25.952C183.243 26.336 182.683 26.768 182.139 27.248C181.627 27.728 181.211 28.32 180.891 29.024C180.571 29.728 180.411 30.576 180.411 31.568C180.411 32.816 180.683 33.744 181.227 34.352C181.771 34.96 182.491 35.264 183.387 35.264ZM221.249 13.184V14.144C220.641 14.304 220.065 14.688 219.521 15.296C218.977 15.872 218.449 16.864 217.937 18.272L211.169 37.28L209.393 40.64L198.929 16.88C198.385 15.632 197.841 14.88 197.297 14.624C196.785 14.336 196.337 14.192 195.953 14.192V13.184C197.009 13.28 198.097 13.36 199.217 13.424C200.369 13.456 201.473 13.472 202.529 13.472C203.841 13.472 205.041 13.44 206.129 13.376C207.217 13.312 208.241 13.248 209.201 13.184V14.192C208.561 14.192 207.953 14.24 207.377 14.336C206.833 14.4 206.449 14.624 206.225 15.008C206.033 15.36 206.129 15.984 206.513 16.88L212.561 31.472L212.129 31.76L215.681 21.824C216.289 20.096 216.545 18.688 216.449 17.6C216.353 16.48 216.001 15.648 215.393 15.104C214.785 14.528 213.953 14.208 212.897 14.144V13.184C213.409 13.216 213.937 13.248 214.481 13.28C215.025 13.28 215.569 13.296 216.113 13.328C216.657 13.328 217.137 13.328 217.553 13.328C218.193 13.328 218.865 13.312 219.569 13.28C220.273 13.248 220.833 13.216 221.249 13.184ZM211.169 37.28L209.345 42.416C209.025 43.216 208.689 43.888 208.337 44.432C208.017 45.008 207.649 45.472 207.233 45.824C206.785 46.208 206.209 46.496 205.505 46.688C204.801 46.912 203.985 47.024 203.057 47.024C202.289 47.024 201.489 46.896 200.657 46.64C199.857 46.384 199.185 45.968 198.641 45.392C198.097 44.816 197.825 44.08 197.825 43.184C197.825 42.192 198.177 41.392 198.881 40.784C199.585 40.208 200.513 39.92 201.665 39.92C202.721 39.92 203.585 40.176 204.257 40.688C204.929 41.2 205.265 41.952 205.265 42.944C205.265 43.584 205.057 44.192 204.641 44.768C204.257 45.344 203.665 45.776 202.865 46.064C203.025 46.096 203.217 46.112 203.441 46.112C203.665 46.112 203.841 46.112 203.969 46.112C204.929 46.112 205.777 45.808 206.513 45.2C207.249 44.592 207.857 43.632 208.337 42.32L210.017 37.376L211.169 37.28ZM246.572 12.656V32.768C246.572 34.208 246.796 35.28 247.244 35.984C247.692 36.656 248.492 36.992 249.644 36.992V38C248.652 37.904 247.66 37.856 246.668 37.856C245.324 37.856 244.076 37.904 242.924 38C241.772 38.096 240.684 38.272 239.66 38.528V34.208C238.892 35.808 237.82 36.96 236.444 37.664C235.1 38.336 233.596 38.672 231.932 38.672C230.588 38.672 229.5 38.496 228.668 38.144C227.836 37.792 227.18 37.344 226.7 36.8C226.156 36.192 225.772 35.392 225.548 34.4C225.324 33.408 225.212 32.128 225.212 30.56V18.416C225.212 16.976 224.988 15.92 224.54 15.248C224.124 14.544 223.324 14.192 222.14 14.192V13.184C223.164 13.28 224.156 13.328 225.116 13.328C226.46 13.328 227.708 13.28 228.86 13.184C230.044 13.056 231.132 12.88 232.124 12.656V32.528C232.124 33.328 232.188 34.032 232.316 34.64C232.476 35.248 232.764 35.728 233.18 36.08C233.596 36.4 234.204 36.56 235.004 36.56C235.868 36.56 236.636 36.32 237.308 35.84C238.012 35.36 238.572 34.704 238.988 33.872C239.436 33.008 239.66 32.048 239.66 30.992V18.416C239.66 16.976 239.436 15.92 238.988 15.248C238.572 14.544 237.772 14.192 236.588 14.192V13.184C237.612 13.28 238.604 13.328 239.564 13.328C240.908 13.328 242.156 13.28 243.308 13.184C244.492 13.056 245.58 12.88 246.572 12.656ZM268.289 12.512C269.313 12.512 270.145 12.736 270.785 13.184C271.425 13.6 271.889 14.144 272.177 14.816C272.497 15.488 272.657 16.192 272.657 16.928C272.657 18.112 272.305 19.088 271.601 19.856C270.929 20.592 270.033 20.96 268.913 20.96C267.793 20.96 266.913 20.688 266.273 20.144C265.665 19.568 265.361 18.816 265.361 17.888C265.361 16.992 265.553 16.256 265.937 15.68C266.353 15.072 266.865 14.56 267.473 14.144C267.025 14.016 266.577 14.032 266.129 14.192C265.521 14.288 264.945 14.544 264.401 14.96C263.857 15.344 263.393 15.84 263.009 16.448C262.625 17.024 262.321 17.664 262.097 18.368C261.873 19.04 261.761 19.696 261.761 20.336V33.056C261.761 34.592 262.129 35.632 262.865 36.176C263.633 36.72 264.769 36.992 266.273 36.992V38C265.537 37.968 264.465 37.936 263.057 37.904C261.649 37.84 260.177 37.808 258.641 37.808C257.361 37.808 256.065 37.84 254.753 37.904C253.441 37.936 252.449 37.968 251.777 38V36.992C252.897 36.992 253.681 36.752 254.129 36.272C254.609 35.792 254.849 34.88 254.849 33.536V18.416C254.849 16.976 254.625 15.92 254.177 15.248C253.761 14.544 252.961 14.192 251.777 14.192V13.184C252.801 13.28 253.793 13.328 254.753 13.328C256.097 13.328 257.345 13.28 258.497 13.184C259.681 13.056 260.769 12.88 261.761 12.656V17.12C262.145 16.256 262.657 15.472 263.297 14.768C263.937 14.064 264.673 13.52 265.505 13.136C266.337 12.72 267.265 12.512 268.289 12.512ZM280.423 0.799998C281.767 0.799998 282.823 1.136 283.591 1.808C284.391 2.448 284.791 3.344 284.791 4.496C284.791 5.648 284.391 6.56 283.591 7.232C282.823 7.872 281.767 8.192 280.423 8.192C279.079 8.192 278.007 7.872 277.207 7.232C276.439 6.56 276.055 5.648 276.055 4.496C276.055 3.344 276.439 2.448 277.207 1.808C278.007 1.136 279.079 0.799998 280.423 0.799998ZM284.167 12.656V33.536C284.167 34.88 284.391 35.792 284.839 36.272C285.319 36.752 286.119 36.992 287.239 36.992V38C286.663 37.968 285.767 37.936 284.551 37.904C283.335 37.84 282.103 37.808 280.855 37.808C279.607 37.808 278.343 37.84 277.063 37.904C275.783 37.936 274.823 37.968 274.183 38V36.992C275.303 36.992 276.087 36.752 276.535 36.272C277.015 35.792 277.255 34.88 277.255 33.536V18.416C277.255 16.976 277.031 15.92 276.583 15.248C276.167 14.544 275.367 14.192 274.183 14.192V13.184C275.207 13.28 276.199 13.328 277.159 13.328C278.503 13.328 279.751 13.28 280.903 13.184C282.087 13.056 283.175 12.88 284.167 12.656Z" fill="#141414"/>
</svg>
